{"title":"Mirror Mirror 2012 TS V2 READ NFO XViD AC3-ADTRG","uid":7160383,"size":1499020676,"categoryP":"video","categoryS":"movies","magnet":"?xt=urn:btih:766f7215474a7bb6eca739a93f891b889af10ff9&amp;dn=Mirror+Mirror+2012+TS+V2+READ+NFO+XViD+AC3-ADTRG&amp;tr=udp%3A%2F%2Ftracker.openbittorrent.com%3A80&amp;tr=udp%3A%2F%2Fopen.demonii.com%3A1337&amp;tr=udp%3A%2F%2Ftracker.coppersurfer.tk%3A6969&amp;tr=udp%3A%2F%2Fexodus.desync.com%3A6969","seeders":1,"leechers":0,"uploader":".BONE.","files":4,"time":1333590569,"description":"An evil queen steals control of a kingdom and an exiled princess enlists the help of seven resourceful rebels to win back her birthright.\n\nComplete name : Mirror.Mirror.2012.TS.V2.READ.NFO.XViD.AC3-ADTRG.avi\nFormat : AVI\nFormat/Info : Audio Video Interleave\nFile size : 1.37 GiB\nDuration : 1h 38mn\nOverall bit rate : 1 992 Kbps\nWriting library : VirtualDub build 34703/release\n\nVideo\nID : 0\nFormat : MPEG-4 Visual\nCodec ID : XVID\nDuration : 1h 38mn\nBit rate : 1 795 Kbps\nWidth : 720 pixels\nHeight : 280 pixels\nDisplay aspect ratio : 2.571\nFrame rate : 25.000 fps\nStream size : 1.23 GiB (90%)\n\nAudio\nID : 1\nFormat : AC-3\nBit rate : 192 Kbps\nChannel(s) : 2 channels\nChannel positions : Front: L R\nSampling rate : 48.0 KHz\nStream size : 131 MiB (9%)\n\n\nSource - cam video - Mirror Mirror 2012 CAM XViD-WBZ Thanks\nSource - Line Audio - Dragon Exclusive Awesome work bro\ncam audio - for last 2 1/2 minutes(singing) yipppeee\n\nEncoder - LiMeY\nnotes- run filters, synced our Awesome new line audio and then got russan cam audio for last 2 1/2 mins filtered/synced and muxed together\n,didnt want the kids upset so added for your viewing pleasure but no grilling this time.\nOnce again i'd like to say thanks to every one at Dragon. your all a Great team and good friends.\nyour know where to find us, come and say hi\n\n &lt;a href=&quot;\nhttp://imgcrave.com/u/P4zYq.png&quot; rel=&quot;nofollow&quot; target=&quot;_NEW&quot;&gt;\nhttp://imgcrave.com/u/P4zYq.png&lt;/a&gt;","torrent":{"xt":"urn:btih:766f7215474a7bb6eca739a93f891b889af10ff9","amp;dn":"Mirror+Mirror+2012+TS+V2+READ+NFO+XViD+AC3-ADTRG","amp;tr":["udp%3A%2F%2Ftracker.openbittorrent.com%3A80","udp%3A%2F%2Fopen.demonii.com%3A1337","udp%3A%2F%2Ftracker.coppersurfer.tk%3A6969","udp%3A%2F%2Fexodus.desync.com%3A6969"],"infoHash":"766f7215474a7bb6eca739a93f891b889af10ff9","infoHashBuffer":{"type":"Buffer","data":[118,111,114,21,71,74,123,182,236,167,57,169,63,137,27,136,154,241,15,249]},"announce":[],"urlList":[]}}